<?xml version="1.0" encoding="UTF-8"?>
<svg id="Camada_2" data-name="Camada 2" xmlns="http://www.w3.org/2000/svg" xmlns:xlink="http://www.w3.org/1999/xlink" viewBox="0 0 59.31 96.26">
  <defs>
    <style>
      .cls-1 {
        fill: #0c0a78;
      }

      .cls-1, .cls-2, .cls-3, .cls-4, .cls-5, .cls-6, .cls-7, .cls-8, .cls-9, .cls-10, .cls-11 {
        stroke-width: 0px;
      }

      .cls-2 {
        fill: url(#_Áåçûìÿííûé_ãðàäèåíò_144);
      }

      .cls-3 {
        fill: #06033e;
        opacity: .4;
      }

      .cls-4 {
        fill: url(#_Áåçûìÿííûé_ãðàäèåíò_483);
      }

      .cls-5 {
        fill: #fff;
      }

      .cls-6 {
        fill: url(#_Áåçûìÿííûé_ãðàäèåíò_483-2);
      }

      .cls-7 {
        fill: url(#_Áåçûìÿííûé_ãðàäèåíò_193);
      }

      .cls-8 {
        fill: url(#_Áåçûìÿííûé_ãðàäèåíò_199);
      }

      .cls-9 {
        fill: #e8975b;
      }

      .cls-10 {
        fill: url(#_Áåçûìÿííûé_ãðàäèåíò_193-2);
      }

      .cls-11 {
        fill: url(#_Áåçûìÿííûé_ãðàäèåíò_223);
      }
    </style>
    <radialGradient id="_Áåçûìÿííûé_ãðàäèåíò_199" data-name="Áåçûìÿííûé ãðàäèåíò 199" cx="-2.93" cy="40.35" fx="-2.93" fy="40.35" r="165.35" gradientUnits="userSpaceOnUse">
      <stop offset="0" stop-color="#e39a65"/>
      <stop offset=".15" stop-color="#a92ffb"/>
      <stop offset=".41" stop-color="#3919bb"/>
      <stop offset=".93" stop-color="#3919bb"/>
    </radialGradient>
    <linearGradient id="_Áåçûìÿííûé_ãðàäèåíò_144" data-name="Áåçûìÿííûé ãðàäèåíò 144" x1="0" y1="19.87" x2="59.31" y2="19.87" gradientUnits="userSpaceOnUse">
      <stop offset="0" stop-color="#e39a65"/>
      <stop offset=".25" stop-color="#a92ffb"/>
      <stop offset=".56" stop-color="#3919bb"/>
    </linearGradient>
    <linearGradient id="_Áåçûìÿííûé_ãðàäèåíò_483" data-name="Áåçûìÿííûé ãðàäèåíò 483" x1="5.56" y1="16.85" x2="53.75" y2="16.85" gradientUnits="userSpaceOnUse">
      <stop offset="0" stop-color="#4f1fec"/>
      <stop offset="1" stop-color="#a92ffb"/>
    </linearGradient>
    <linearGradient id="_Áåçûìÿííûé_ãðàäèåíò_483-2" data-name="Áåçûìÿííûé ãðàäèåíò 483" x1="4.42" x2="52.6" xlink:href="#_Áåçûìÿííûé_ãðàäèåíò_483"/>
    <linearGradient id="_Áåçûìÿííûé_ãðàäèåíò_193" data-name="Áåçûìÿííûé ãðàäèåíò 193" x1="5.57" y1="10.5" x2="66.32" y2="10.5" gradientUnits="userSpaceOnUse">
      <stop offset="0" stop-color="#131060"/>
      <stop offset=".19" stop-color="#140f62"/>
      <stop offset=".28" stop-color="#190f6a"/>
      <stop offset=".36" stop-color="#220f77"/>
      <stop offset=".42" stop-color="#2e0f8a"/>
      <stop offset=".48" stop-color="#3d0ea3"/>
      <stop offset=".54" stop-color="#510ec1"/>
      <stop offset=".58" stop-color="#670de5"/>
      <stop offset=".61" stop-color="#740df8"/>
      <stop offset=".62" stop-color="#7a14ef"/>
      <stop offset=".68" stop-color="#9b3bc2"/>
      <stop offset=".75" stop-color="#b75c9d"/>
      <stop offset=".81" stop-color="#cc7680"/>
      <stop offset=".88" stop-color="#db886b"/>
      <stop offset=".94" stop-color="#e4935f"/>
      <stop offset="1" stop-color="#e8975b"/>
    </linearGradient>
    <radialGradient id="_Áåçûìÿííûé_ãðàäèåíò_223" data-name="Áåçûìÿííûé ãðàäèåíò 223" cx="-7.4" cy="3.09" fx="-7.4" fy="3.09" r="108.16" gradientUnits="userSpaceOnUse">
      <stop offset="0" stop-color="#e39a65"/>
      <stop offset=".25" stop-color="#a92ffb"/>
      <stop offset=".74" stop-color="#3919bb"/>
    </radialGradient>
    <linearGradient id="_Áåçûìÿííûé_ãðàäèåíò_193-2" data-name="Áåçûìÿííûé ãðàäèåíò 193" x1="25.84" y1="30.11" x2="34.24" y2="30.11" xlink:href="#_Áåçûìÿííûé_ãðàäèåíò_193"/>
  </defs>
  <g id="_Ñëîé_1" data-name="Ñëîé 1">
    <g id="Copo_café" data-name="Copo café">
      <path class="cls-8" d="m57.62,22.55H1.68l5.2,60.57h0c0,3.36,2.22,6.73,6.67,9.29,8.89,5.13,23.31,5.13,32.2,0,4.45-2.57,6.67-5.93,6.67-9.3l5.2-60.57Z"/>
      <path class="cls-3" d="m57.62,22.55H1.68l.86,9.96c1.28,1.64,3.01,3.22,5.18,4.66,10.69,7.09,28.33,8.46,40.36,3.35l-1.86,44.3c-.08,1.93-.75,3.81-2,5.28-1.81,2.13-5.3,4.64-12.01,6.06,4.95-.32,9.75-1.57,13.54-3.76,4.45-2.57,6.67-5.93,6.67-9.3l4.17-48.57h0l1.03-11.99Z"/>
      <ellipse class="cls-3" cx="29.65" cy="22.55" rx="27.97" ry="16.15"/>
      <ellipse class="cls-3" cx="29.65" cy="16.85" rx="24.09" ry="13.91"/>
      <path class="cls-2" d="m59.28,21.78h0s0-.05,0-.05c0-.03,0-.06,0-.08l-.54-5.42-.02.06c-.24-4.1-3.07-8.17-8.49-11.3-11.36-6.56-29.77-6.56-41.13,0C3.53,8.2.7,12.39.58,16.6h0S.07,21.42.07,21.42c-.01.13-.03.25-.04.38v.08s0,0,0,0c-.31,4.6,2.58,9.26,8.66,12.77,11.58,6.69,30.36,6.69,41.94,0,6.12-3.53,9.01-8.23,8.66-12.86Z"/>
      <ellipse class="cls-4" cx="29.65" cy="16.85" rx="24.09" ry="13.91"/>
      <ellipse class="cls-6" cx="28.51" cy="16.85" rx="24.09" ry="13.91"/>
      <path class="cls-3" d="m15.48,9.09c9.41-5.43,24.66-5.43,34.07,0,.12.07.22.14.34.22-.91-.81-1.97-1.58-3.19-2.29-9.41-5.43-24.66-5.43-34.07,0-9.29,5.36-9.39,14.01-.34,19.46-6.04-5.39-4.99-12.66,3.19-17.38Z"/>
      <path class="cls-7" d="m12.62,9.43c9.41-5.43,24.66-5.43,34.07,0,4.17,2.41,6.49,5.48,6.96,8.63.59-3.95-1.73-8.02-6.96-11.04-9.41-5.43-24.66-5.43-34.07,0-5.24,3.02-7.55,7.09-6.96,11.04.47-3.15,2.79-6.22,6.96-8.63Z"/>
      <path class="cls-11" d="m50.4,5.12c-11.34-6.68-29.82-6.84-41.28-.36-11.46,6.48-11.55,17.15-.21,23.83,11.34,6.68,29.82,6.84,41.28.36,11.46-6.48,11.55-17.15.21-23.83Zm-3.71,21.57c-3.14,1.81-6.94,3.01-10.95,3.61l-.44-1.44c-.18-.58-.71-.98-1.32-.98h-8.65c-.61,0-1.14.4-1.32.98l-.44,1.44c-4.01-.6-7.81-1.8-10.95-3.61-9.41-5.43-9.41-14.24,0-19.67,9.41-5.43,24.66-5.43,34.07,0,9.41,5.43,9.41,14.24,0,19.67Z"/>
      <g>
        <path class="cls-5" d="m46.69,5.99c-9.41-5.43-24.66-5.43-34.07,0-4.93,2.85-7.27,6.62-7.03,10.35.22-3.39,2.56-6.74,7.03-9.32,9.41-5.43,24.66-5.43,34.07,0,4.48,2.59,6.82,5.93,7.04,9.32.24-3.73-2.1-7.5-7.04-10.35Z"/>
        <path class="cls-5" d="m50.19,27.92c-11.46,6.48-29.94,6.32-41.28-.36C3.51,24.38.71,20.29.49,16.19c-.22,4.45,2.58,8.95,8.42,12.4,11.34,6.68,29.82,6.84,41.28.36,6-3.4,8.88-7.94,8.63-12.46-.21,4.17-3.08,8.3-8.63,11.43Z"/>
      </g>
      <rect class="cls-1" x="26.41" y="29.65" width="6.48" height="1.4" rx=".65" ry=".65"/>
      <path class="cls-10" d="m32.24,29.65h-5.17c-.36,0-.65.29-.65.65v.09c0,.06.02.12.04.17.08-.27.32-.48.62-.48h5.17c.3,0,.54.2.62.48.02-.06.04-.11.04-.17v-.09c0-.36-.29-.65-.65-.65Z"/>
      <g>
        <path class="cls-9" d="m30.45,76.89c-.63,2.39-3.08,3.8-5.47,3.17-2.39-.63-3.8-3.08-3.17-5.47.63-2.39,2.88-3.06,5.27-2.43,2.39.63,4,2.34,3.37,4.72Z"/>
        <path class="cls-9" d="m33.96,72.18c-.9.88-2.05.77-2.81-.02-.76-.78-.85-1.93.05-2.81.9-.88,2.61-1.31,3.37-.53.76.78.29,2.48-.61,3.36Z"/>
        <path class="cls-9" d="m29.29,68.45c-.22,1.24-1.22,1.82-2.3,1.62-1.08-.19-1.82-1.08-1.6-2.32s1.36-2.59,2.44-2.39c1.08.19,1.68,1.85,1.46,3.09Z"/>
        <path class="cls-9" d="m23.53,67.87c.48,1.16-.06,2.19-1.07,2.6-1.01.42-2.11.07-2.59-1.1-.48-1.16-.24-2.91.77-3.33,1.01-.42,2.41.66,2.89,1.82Z"/>
      </g>
    </g>
  </g>
</svg>