<?xml version="1.0" encoding="UTF-8"?>
<svg id="Camada_2" data-name="Camada 2" xmlns="http://www.w3.org/2000/svg" xmlns:xlink="http://www.w3.org/1999/xlink" viewBox="0 0 292.36 170.55">
  <defs>
    <style>
      .cls-1 {
        fill: url(#_Áåçûìÿííûé_ãðàäèåíò_33);
        stroke-width: 0px;
      }
    </style>
    <linearGradient id="_Áåçûìÿííûé_ãðàäèåíò_33" data-name="Áåçûìÿííûé ãðàäèåíò 33" x1="0" y1="85.27" x2="292.36" y2="85.27" gradientUnits="userSpaceOnUse">
      <stop offset="0" stop-color="#e39a65"/>
      <stop offset="1" stop-color="#e95f8d"/>
    </linearGradient>
  </defs>
  <g id="_Ñëîé_1" data-name="Ñëîé 1">
    <path class="cls-1" d="m171.47,170.55c-1.69,0-3.31-.35-4.54-1.07h0L2.09,74.31c-1.35-.78-2.09-1.9-2.09-3.16,0-1.45,1.01-2.86,2.76-3.87L115.12,1.46c3.08-1.78,7.61-1.95,10.31-.39l164.84,95.17c1.35.78,2.09,1.9,2.09,3.16,0,1.45-1.01,2.85-2.76,3.87l-112.36,65.83c-1.67.96-3.77,1.46-5.76,1.46ZM120.91,1.87c-1.69,0-3.48.41-4.85,1.2L3.7,68.9c-1.15.67-1.83,1.51-1.83,2.26s.63,1.24,1.16,1.54l164.84,95.17h0c2.1,1.22,5.97,1.04,8.44-.39l112.36-65.83c1.15-.67,1.83-1.51,1.83-2.26s-.63-1.24-1.16-1.54L124.5,2.68c-.94-.54-2.23-.81-3.59-.81Z"/>
  </g>
</svg>